<!-- <?xml version="1.0" encoding="UTF-8" standalone="no"?>
<!DOCTYPE svg PUBLIC "-//W3C//DTD SVG 1.1//EN" "http://www.w3.org/Graphics/SVG/1.1/DTD/svg11.dtd">
Created with Vectornator (http://vectornator.io/) -->
<svg height="100%" stroke-miterlimit="10" style="fill-rule:nonzero;clip-rule:evenodd;stroke-linecap:round;stroke-linejoin:round;" version="1.1" viewBox="0 0 629.638 263.491" width="100%" xml:space="preserve" xmlns="http://www.w3.org/2000/svg" xmlns:vectornator="http://vectornator.io" xmlns:xlink="http://www.w3.org/1999/xlink">
<defs/>
<clipPath id="ArtboardFrame">
<rect height="263.491" width="629.638" x="0" y="0"/>
</clipPath>
<g clip-path="url(#ArtboardFrame)" id="Layer-1" vectornator:layerName="Layer 1">
<g opacity="1">
<path d="M556.092 33.6979L538.149 59.7888L521.105 86.3854L543 86.8349L543 169.678C543 190.897 532.641 199.908 515.598 199.908C498.388 199.908 488.196 190.897 488.196 169.678L488.196 123.452L488.027 123.452L488.027 115.267L450.361 115.267L450.361 129.539L465.645 129.539L465.645 170.015C465.645 201.594 485.017 217.121 515.092 217.121C527.393 217.121 537.807 214.364 545.866 209.011L545.866 262.859L568.21 262.859L568.21 210.959C574.426 213.128 580.153 214.292 585.311 214.292C597.6 214.293 607.718 210.181 615.654 201.968C623.589 193.755 627.547 183.247 627.547 170.464C627.547 156.94 623.352 146.42 614.923 138.886C606.494 131.351 594.691 127.573 579.561 127.573L568.21 127.573L568.21 87.0034L590.106 86.8723L573.586 60.051L556.092 33.6979ZM567.873 143.268L578.849 143.268C586.754 143.268 592.78 144.226 596.886 146.171C600.993 148.117 604.229 151.219 606.607 155.48C608.985 159.741 610.166 164.663 610.166 170.221C610.166 178.866 607.65 185.927 602.617 191.423C597.585 196.919 591.118 199.664 583.213 199.664C577.877 199.665 572.774 198.449 567.873 196.106L567.873 143.268Z" fill="#ffb000" fill-rule="nonzero" opacity="1" stroke="#3395ff" stroke-linecap="butt" stroke-linejoin="round" stroke-opacity="0" stroke-width="7.19232" vectornator:layerName="Curve"/>
<g opacity="1" vectornator:layerName="Group">
<path d="M304.746 53.4872C304.746 46.3323 310.547 40.5322 317.701 40.5322C324.856 40.5322 330.656 46.3323 330.656 53.4872C330.656 60.642 324.856 66.4422 317.701 66.4422C310.547 66.4422 304.746 60.642 304.746 53.4872Z" fill="#015f8a" fill-rule="nonzero" opacity="1" stroke="#3395ff" stroke-linecap="butt" stroke-linejoin="round" stroke-opacity="0" stroke-width="8.25633"/>
<path d="M318.221 0.748616C306.062 0.748591 296.195 25.0129 296.195 54.9532C296.195 84.8936 306.061 109.158 318.221 109.158C328.238 109.158 336.588 92.5894 339.255 70.0496C338.463 70.5738 337.597 71.07 336.783 71.5854C334.003 90.4943 326.71 104.082 318.071 104.082C307.05 104.082 298.123 82.09 298.124 54.9532C298.124 27.8164 307.051 5.82439 318.071 5.82444C320.105 5.82444 322.048 6.70985 323.896 8.1095C322.97 9.40478 322.323 10.9097 322.323 12.6234C322.323 14.6041 323.105 16.3678 324.309 17.7554C324.328 17.7801 324.345 17.806 324.365 17.8304C324.649 18.1511 324.968 18.4023 325.301 18.6732C325.797 19.1121 326.33 19.4827 326.931 19.7783C327.134 19.872 327.337 19.964 327.549 20.0405C327.829 20.1482 328.078 20.3225 328.373 20.3964C328.375 20.3629 328.39 20.3362 328.392 20.3027C328.983 20.4439 329.593 20.5275 330.227 20.5275C334.595 20.5275 338.131 16.9918 338.131 12.6234C338.131 8.25504 334.596 4.71937 330.227 4.71937C329.086 4.71937 328.004 4.97764 327.024 5.41238C324.322 2.4803 321.367 0.748624 318.221 0.748616Z" fill="#015f8a" fill-rule="nonzero" opacity="1" stroke="#3395ff" stroke-linecap="butt" stroke-linejoin="round" stroke-opacity="0" stroke-width="7.19232"/>
<path d="M364.937 81.5874C370.815 70.9424 354.342 50.5767 328.131 36.1051C301.921 21.6336 275.91 18.5429 270.033 29.1881C265.191 37.9569 275.66 53.2755 294.103 66.5045C294.026 65.558 294.011 64.5596 293.953 63.5978C278.743 52.0246 270.373 39.0726 274.549 31.5103C279.876 21.8621 303.443 24.677 327.199 37.794C350.955 50.9105 365.893 69.3549 360.566 79.0028C359.583 80.7833 357.869 82.0561 355.75 82.9977C355.064 81.5608 354.059 80.2669 352.559 79.4386C350.825 78.4813 348.903 78.3135 347.107 78.6961C347.076 78.7011 347.045 78.7037 347.014 78.7091C346.596 78.8033 346.222 78.961 345.824 79.1215C345.2 79.3433 344.618 79.6308 344.068 80.0139C343.888 80.1467 343.71 80.2795 343.54 80.4283C343.31 80.6216 343.038 80.7548 342.83 80.9777C342.859 80.9955 342.875 81.0214 342.903 81.0394C342.494 81.4889 342.126 81.982 341.819 82.5376C339.708 86.3617 341.094 91.166 344.918 93.2775C348.742 95.3891 353.547 94.0026 355.658 90.1784C356.21 89.1796 356.507 88.1074 356.6 87.0396C360.473 86.0906 363.417 84.3408 364.937 81.5874Z" fill="#015f8a" fill-rule="nonzero" opacity="1" stroke="#3395ff" stroke-linecap="butt" stroke-linejoin="round" stroke-opacity="0" stroke-width="7.19232"/>
<path d="M270.948 82.3441C277.188 92.7805 303.077 88.7969 328.774 73.4321C354.471 58.0671 370.233 37.147 363.993 26.7104C358.853 18.1133 340.347 19.4489 319.633 28.7272C320.489 29.1377 321.36 29.6267 322.22 30.0609C339.876 22.7432 355.28 22.0296 359.713 29.4438C365.369 38.9029 351.075 57.8507 327.784 71.7763C304.493 85.7024 281.037 89.3268 275.381 79.8678C274.337 78.1222 274.1 76.0004 274.353 73.6957C275.94 73.8259 277.564 73.609 279.034 72.7296C280.734 71.713 281.847 70.1366 282.42 68.3919C282.432 68.3627 282.445 68.3345 282.456 68.3052C282.585 67.8962 282.637 67.4936 282.699 67.0689C282.821 66.4183 282.865 65.7706 282.811 65.1032C282.787 64.8806 282.762 64.6596 282.719 64.4382C282.667 64.1423 282.689 63.8397 282.601 63.5482C282.571 63.5638 282.541 63.5648 282.511 63.5802C282.329 63.0001 282.088 62.4342 281.762 61.8894C279.52 58.1403 274.671 56.92 270.922 59.1618C267.173 61.4034 265.953 66.2526 268.194 70.0019C268.78 70.9811 269.557 71.7774 270.433 72.3952C269.303 76.2197 269.333 79.6446 270.948 82.3441Z" fill="#015f8a" fill-rule="nonzero" opacity="1" stroke="#3395ff" stroke-linecap="butt" stroke-linejoin="round" stroke-opacity="0" stroke-width="7.19232"/>
</g>
<g fill="#015f8a" opacity="0" stroke="none">
<path d="M87.2218 256.945C87.5665 257.008 87.9895 257.063 88.4908 257.11C88.9922 257.157 89.4622 257.18 89.9008 257.18C90.9662 257.18 91.9453 257.024 92.8383 256.71C93.7313 256.397 94.499 255.911 95.1413 255.253C95.7837 254.595 96.285 253.742 96.6453 252.692C97.0057 251.642 97.1858 250.381 97.1858 248.908C97.1858 246.088 96.5278 243.966 95.2118 242.54C93.8958 241.114 92.1412 240.401 89.9478 240.401C89.5092 240.401 89.0627 240.417 88.6083 240.448C88.154 240.48 87.6918 240.527 87.2218 240.589L87.2218 256.945ZM89.8538 263.807C89.3212 263.807 88.7102 263.792 88.0208 263.76C87.3315 263.729 86.6187 263.666 85.8823 263.572C85.146 263.478 84.4097 263.361 83.6733 263.22C82.937 263.079 82.2555 262.883 81.6288 262.632C79.9055 261.974 79.0438 260.831 79.0438 259.201L79.0438 237.252C79.0438 236.594 79.224 236.085 79.5843 235.725C79.9447 235.365 80.4382 235.075 81.0648 234.855C82.4122 234.417 83.8378 234.127 85.3418 233.986C86.8458 233.845 88.1932 233.774 89.3838 233.774C91.8278 233.774 94.0447 234.072 96.0343 234.667C98.024 235.263 99.7317 236.179 101.157 237.417C102.583 238.655 103.688 240.213 104.471 242.093C105.254 243.973 105.646 246.198 105.646 248.767C105.646 251.274 105.27 253.46 104.518 255.324C103.766 257.188 102.693 258.755 101.298 260.024C99.904 261.293 98.2355 262.241 96.2928 262.867C94.3502 263.494 92.2038 263.807 89.8538 263.807Z"/>
<path d="M132.725 263.008C132.412 263.102 131.918 263.196 131.244 263.29C130.571 263.384 129.874 263.431 129.153 263.431C128.464 263.431 127.845 263.384 127.296 263.29C126.748 263.196 126.286 263.008 125.91 262.726C125.534 262.444 125.244 262.061 125.04 261.575C124.837 261.089 124.735 260.455 124.735 259.671L124.735 245.571C124.735 244.851 124.868 244.232 125.134 243.715C125.401 243.198 125.785 242.736 126.286 242.328C126.787 241.921 127.406 241.553 128.142 241.224C128.879 240.895 129.67 240.605 130.516 240.354C131.362 240.104 132.239 239.908 133.148 239.767C134.057 239.626 134.965 239.555 135.874 239.555C137.378 239.555 138.569 239.845 139.446 240.425C140.323 241.005 140.762 241.952 140.762 243.268C140.762 243.707 140.699 244.138 140.574 244.561C140.449 244.984 140.292 245.368 140.104 245.712C139.446 245.712 138.772 245.744 138.083 245.806C137.394 245.869 136.72 245.963 136.062 246.088C135.404 246.214 134.785 246.347 134.205 246.488C133.626 246.629 133.132 246.793 132.725 246.981L132.725 263.008Z"/>
<path d="M155.292 259.248C155.292 257.932 155.699 256.836 156.514 255.958C157.329 255.081 158.441 254.642 159.851 254.642C161.261 254.642 162.373 255.081 163.188 255.958C164.003 256.836 164.41 257.932 164.41 259.248C164.41 260.564 164.003 261.661 163.188 262.538C162.373 263.416 161.261 263.854 159.851 263.854C158.441 263.854 157.329 263.416 156.514 262.538C155.699 261.661 155.292 260.564 155.292 259.248Z"/>
<path d="M179.833 241.153C179.614 240.809 179.41 240.339 179.222 239.743C179.034 239.148 178.94 238.521 178.94 237.863C178.94 236.641 179.214 235.764 179.762 235.231C180.311 234.699 181.024 234.432 181.901 234.432L202.393 234.432C202.612 234.777 202.816 235.247 203.004 235.842C203.192 236.438 203.286 237.064 203.286 237.722C203.286 238.944 203.012 239.822 202.463 240.354C201.915 240.887 201.202 241.153 200.325 241.153L195.108 241.153L195.108 262.867C194.763 262.961 194.223 263.055 193.486 263.149C192.75 263.243 192.022 263.29 191.301 263.29C190.58 263.29 189.946 263.236 189.397 263.126C188.849 263.016 188.387 262.82 188.011 262.538C187.635 262.256 187.353 261.865 187.165 261.363C186.977 260.862 186.883 260.204 186.883 259.389L186.883 241.153L179.833 241.153Z"/>
<path d="M230.036 257.979C230.569 257.979 231.156 257.925 231.798 257.815C232.441 257.705 232.919 257.556 233.232 257.368L233.232 253.608L229.848 253.89C228.971 253.953 228.25 254.141 227.686 254.454C227.122 254.768 226.84 255.238 226.84 255.864C226.84 256.491 227.083 257 227.568 257.392C228.054 257.784 228.877 257.979 230.036 257.979ZM229.66 239.508C231.352 239.508 232.895 239.681 234.289 240.025C235.684 240.37 236.874 240.895 237.861 241.6C238.848 242.305 239.608 243.198 240.141 244.279C240.674 245.36 240.94 246.637 240.94 248.109L240.94 258.637C240.94 259.452 240.713 260.118 240.258 260.635C239.804 261.152 239.264 261.598 238.637 261.974C236.6 263.196 233.733 263.807 230.036 263.807C228.375 263.807 226.879 263.651 225.547 263.337C224.216 263.024 223.072 262.554 222.116 261.927C221.161 261.301 220.424 260.502 219.907 259.53C219.39 258.559 219.132 257.431 219.132 256.146C219.132 253.984 219.774 252.324 221.059 251.164C222.344 250.005 224.333 249.284 227.028 249.002L233.185 248.344L233.185 248.015C233.185 247.107 232.785 246.457 231.986 246.065C231.187 245.673 230.036 245.477 228.532 245.477C227.341 245.477 226.182 245.603 225.054 245.853C223.926 246.104 222.908 246.417 221.999 246.793C221.592 246.511 221.247 246.081 220.965 245.501C220.683 244.921 220.542 244.318 220.542 243.691C220.542 242.877 220.738 242.227 221.129 241.741C221.521 241.255 222.124 240.84 222.939 240.495C223.848 240.151 224.921 239.9 226.158 239.743C227.396 239.587 228.563 239.508 229.66 239.508Z"/>
<path d="M272.907 263.807C271.058 263.807 269.343 263.549 267.76 263.032C266.178 262.515 264.799 261.739 263.624 260.705C262.449 259.671 261.525 258.371 260.851 256.804C260.178 255.238 259.841 253.405 259.841 251.305C259.841 249.237 260.178 247.459 260.851 245.971C261.525 244.483 262.41 243.261 263.507 242.305C264.604 241.349 265.857 240.644 267.267 240.19C268.677 239.736 270.118 239.508 271.591 239.508C273.252 239.508 274.763 239.759 276.126 240.26C277.489 240.762 278.664 241.451 279.651 242.328C280.638 243.206 281.406 244.255 281.954 245.477C282.503 246.699 282.777 248.031 282.777 249.472C282.777 250.538 282.479 251.352 281.884 251.916C281.289 252.48 280.458 252.841 279.393 252.997L267.784 254.736C268.129 255.77 268.834 256.546 269.899 257.063C270.964 257.58 272.186 257.838 273.565 257.838C274.85 257.838 276.064 257.674 277.207 257.345C278.351 257.016 279.283 256.632 280.004 256.193C280.505 256.507 280.928 256.945 281.273 257.509C281.618 258.073 281.79 258.669 281.79 259.295C281.79 260.705 281.132 261.755 279.816 262.444C278.813 262.977 277.685 263.337 276.432 263.525C275.179 263.713 274.004 263.807 272.907 263.807ZM271.591 245.336C270.839 245.336 270.189 245.462 269.64 245.712C269.092 245.963 268.646 246.284 268.301 246.676C267.956 247.068 267.698 247.506 267.525 247.992C267.353 248.478 267.251 248.971 267.22 249.472L275.257 248.156C275.163 247.53 274.818 246.903 274.223 246.276C273.628 245.65 272.75 245.336 271.591 245.336Z"/>
<path d="M325.326 241.153C325.107 240.809 324.903 240.339 324.715 239.743C324.527 239.148 324.433 238.521 324.433 237.863C324.433 236.641 324.707 235.764 325.255 235.231C325.804 234.699 326.517 234.432 327.394 234.432L347.886 234.432C348.105 234.777 348.309 235.247 348.497 235.842C348.685 236.438 348.779 237.064 348.779 237.722C348.779 238.944 348.505 239.822 347.956 240.354C347.408 240.887 346.695 241.153 345.818 241.153L340.601 241.153L340.601 262.867C340.256 262.961 339.716 263.055 338.979 263.149C338.243 263.243 337.515 263.29 336.794 263.29C336.073 263.29 335.439 263.236 334.89 263.126C334.342 263.016 333.88 262.82 333.504 262.538C333.128 262.256 332.846 261.865 332.658 261.363C332.47 260.862 332.376 260.204 332.376 259.389L332.376 241.153L325.326 241.153Z"/>
<path d="M365.988 240.542C366.301 240.448 366.795 240.354 367.468 240.26C368.142 240.166 368.839 240.119 369.56 240.119C370.249 240.119 370.868 240.166 371.416 240.26C371.965 240.354 372.427 240.542 372.803 240.824C373.179 241.106 373.469 241.49 373.672 241.976C373.876 242.462 373.978 243.096 373.978 243.879L373.978 253.984C373.978 255.269 374.291 256.186 374.918 256.734C375.545 257.282 376.453 257.556 377.644 257.556C378.365 257.556 378.952 257.494 379.406 257.368C379.861 257.243 380.213 257.118 380.464 256.992L380.464 240.542C380.777 240.448 381.271 240.354 381.944 240.26C382.618 240.166 383.315 240.119 384.036 240.119C384.725 240.119 385.344 240.166 385.892 240.26C386.441 240.354 386.903 240.542 387.279 240.824C387.655 241.106 387.945 241.49 388.148 241.976C388.352 242.462 388.454 243.096 388.454 243.879L388.454 258.167C388.454 259.734 387.796 260.909 386.48 261.692C385.383 262.382 384.075 262.907 382.555 263.267C381.036 263.627 379.383 263.807 377.597 263.807C375.905 263.807 374.346 263.619 372.92 263.243C371.495 262.867 370.265 262.288 369.231 261.504C368.197 260.721 367.398 259.711 366.834 258.473C366.27 257.235 365.988 255.739 365.988 253.984L365.988 240.542Z"/>
<path d="M416.332 255.206C416.332 256.021 416.59 256.601 417.107 256.945C417.624 257.29 418.353 257.462 419.293 257.462C419.763 257.462 420.249 257.423 420.75 257.345C421.251 257.267 421.69 257.165 422.066 257.039C422.348 257.384 422.591 257.768 422.794 258.191C422.998 258.614 423.1 259.123 423.1 259.718C423.1 260.909 422.653 261.88 421.76 262.632C420.867 263.384 419.293 263.76 417.037 263.76C414.28 263.76 412.157 263.134 410.668 261.88C409.18 260.627 408.436 258.59 408.436 255.77L408.436 235.654C408.781 235.56 409.274 235.459 409.916 235.349C410.559 235.239 411.24 235.184 411.961 235.184C413.34 235.184 414.413 235.427 415.18 235.913C415.948 236.399 416.332 237.425 416.332 238.991L416.332 241.999L422.489 241.999C422.677 242.344 422.857 242.775 423.029 243.292C423.202 243.809 423.288 244.381 423.288 245.007C423.288 246.104 423.045 246.895 422.559 247.381C422.074 247.867 421.424 248.109 420.609 248.109L416.332 248.109L416.332 255.206Z"/>
<path d="M465.501 251.634C465.501 253.577 465.203 255.308 464.608 256.828C464.013 258.348 463.174 259.624 462.093 260.658C461.012 261.692 459.72 262.476 458.216 263.008C456.712 263.541 455.036 263.807 453.187 263.807C451.338 263.807 449.662 263.525 448.158 262.961C446.654 262.397 445.361 261.591 444.28 260.541C443.199 259.491 442.361 258.214 441.766 256.71C441.171 255.206 440.873 253.514 440.873 251.634C440.873 249.786 441.171 248.109 441.766 246.605C442.361 245.101 443.199 243.825 444.28 242.775C445.361 241.725 446.654 240.918 448.158 240.354C449.662 239.79 451.338 239.508 453.187 239.508C455.036 239.508 456.712 239.798 458.216 240.378C459.72 240.958 461.012 241.772 462.093 242.822C463.174 243.872 464.013 245.148 464.608 246.652C465.203 248.156 465.501 249.817 465.501 251.634ZM449.051 251.634C449.051 253.546 449.419 255.011 450.155 256.029C450.892 257.047 451.918 257.556 453.234 257.556C454.55 257.556 455.56 257.039 456.265 256.005C456.97 254.971 457.323 253.514 457.323 251.634C457.323 249.754 456.963 248.305 456.242 247.287C455.521 246.269 454.503 245.759 453.187 245.759C451.871 245.759 450.853 246.269 450.132 247.287C449.411 248.305 449.051 249.754 449.051 251.634Z"/>
<path d="M492.392 263.008C492.079 263.102 491.585 263.196 490.911 263.29C490.238 263.384 489.541 263.431 488.82 263.431C488.131 263.431 487.512 263.384 486.963 263.29C486.415 263.196 485.953 263.008 485.577 262.726C485.201 262.444 484.911 262.061 484.707 261.575C484.504 261.089 484.402 260.455 484.402 259.671L484.402 245.571C484.402 244.851 484.535 244.232 484.801 243.715C485.068 243.198 485.452 242.736 485.953 242.328C486.454 241.921 487.073 241.553 487.809 241.224C488.546 240.895 489.337 240.605 490.183 240.354C491.029 240.104 491.906 239.908 492.815 239.767C493.724 239.626 494.632 239.555 495.541 239.555C497.045 239.555 498.236 239.845 499.113 240.425C499.99 241.005 500.429 241.952 500.429 243.268C500.429 243.707 500.366 244.138 500.241 244.561C500.116 244.984 499.959 245.368 499.771 245.712C499.113 245.712 498.439 245.744 497.75 245.806C497.061 245.869 496.387 245.963 495.729 246.088C495.071 246.214 494.452 246.347 493.872 246.488C493.293 246.629 492.799 246.793 492.392 246.981L492.392 263.008Z"/>
</g>
<path d="M96.5606 53.8885C81.8898 53.5402 63.236 59.2253 51.0294 64.826C30.8012 74.1069 16.8321 88.5272 9.0919 108.045C1.35175 127.562 1.9055 146.986 10.7794 166.326C16.3656 178.501 24.5797 188.44 35.4044 196.139C46.229 203.838 58.1773 208.295 71.2481 209.514C84.319 210.731 98.2538 207.915 113.092 201.107C126.354 195.022 133.279 187.988 144.623 171.139L144.623 205.826L139.873 205.826L139.873 214.139L168.404 214.139L168.404 205.826L163.654 205.826L163.654 144.264C168.12 139.24 172.207 135.614 175.904 133.451C179.602 131.288 183.531 130.232 187.717 130.232C193.368 130.232 197.951 132.379 201.404 136.67C204.858 140.96 206.561 146.623 206.561 153.67L206.561 205.826L201.717 205.826L201.717 214.139L230.279 214.139L230.279 205.826L225.623 205.826L225.623 158.389C225.623 147.226 221.873 133.17 221.873 133.17C221.873 133.17 215.654 123.098 210.561 119.889C205.468 116.679 199.698 115.045 193.279 115.045C181.489 115.045 171.608 119.91 163.654 129.607L163.654 72.576L168.404 72.576L168.404 64.2635L139.873 64.2635L139.873 72.576L144.623 72.576L144.623 149.514C134.161 164.911 121.369 176.124 106.217 183.076C90.808 190.146 76.0088 191.266 61.8106 186.42C47.6126 181.574 37.1899 171.879 30.4981 157.295C23.8645 142.837 23.3554 128.513 28.9981 114.295C34.641 100.077 45.092 89.4338 60.3106 82.451C75.1487 75.643 92.3267 73.108 111.936 74.8573C111.936 74.8568 117.789 56.9629 102.561 54.451C100.657 54.1371 98.6565 53.9382 96.5606 53.8885ZM276.123 121.076C251.863 121.076 235.28 139.297 235.279 168.639C235.279 198.144 254.81 215.357 277.904 215.357C300.999 215.357 315.206 192.661 316.691 183.914L297.092 183.857C297.092 183.857 289.862 198.547 277.942 198.547C266.022 198.547 255.631 189.623 255.467 172.576L316.248 172.576L316.248 168.295C316.248 137.806 299.072 121.076 276.123 121.076ZM276.436 135.357C288.729 135.357 295.14 143.87 296.123 158.951L255.779 158.951C256.763 144.526 263.978 135.357 276.436 135.357ZM423.092 126.045C413.21 126.045 403.728 131.26 394.654 141.701C388.688 131.385 380.28 126.201 369.404 126.201C361.139 126.201 352.668 130.531 344.029 139.17L344.029 127.889L327.092 127.889L327.092 213.639L344.029 213.639L344.029 151.389C347.82 147.286 351.202 144.411 354.154 142.795C357.106 141.179 360.362 140.389 363.904 140.389C370.244 140.389 374.7 142.254 377.248 146.014C379.796 149.773 381.061 156.411 381.061 165.92L381.061 213.639L398.123 213.639L398.123 151.389C404.214 144.304 410.757 140.763 417.779 140.764C423.248 140.763 427.421 142.629 430.342 146.42C433.263 150.211 434.748 155.71 434.748 162.857L434.748 213.639L451.717 213.639L451.717 163.014C451.717 150.522 448.999 141.26 443.623 135.17C438.247 129.079 431.42 126.045 423.092 126.045Z" fill="#015f8a" fill-rule="nonzero" opacity="1" stroke="#015f8a" stroke-linecap="butt" stroke-linejoin="round" stroke-width="5"/>
<g opacity="0">
<path d="M308.53-195.901C127.807-195.901-20.855-58.6156-38.9459 117.327C-20.4945-51.6749 122.603-183.18 296.516-183.181C482.951-183.181 634.043-32.0882 634.043 154.347C634.043 340.782 482.951 491.929 296.516 491.929C145.528 491.929 17.7433 392.781-25.41 256.056C18.4205 398.917 151.305 502.801 308.53 502.801C501.46 502.801 657.853 346.408 657.853 153.477C657.854-39.4533 501.46-195.901 308.53-195.901Z" fill="#ffb000" fill-rule="nonzero" opacity="1" stroke="none"/>
<path d="M524.561 448.788C669.625 341.005 707.078 142.146 616.668-9.87072C702.649 136.79 666.216 327.691 526.618 431.412C465.324 476.954 393.671 498.613 322.789 498.031C220.612 497.192 120.036 450.138 54.3878 361.783C-56.8016 212.133-25.6648 0.698608 123.985-110.491C245.181-200.539 406.884-197.166 523.065-113.154C402.681-201.687 234.06-205.821 107.857-112.053C-47.0059 3.01023-79.2688 221.818 35.7944 376.681C150.857 531.545 369.698 563.851 524.561 448.788Z" fill="#01547a" fill-rule="nonzero" opacity="1" stroke="none"/>
</g>
<g fill="#015f8a" opacity="1" stroke="none">
<path d="M78.5054 253.368C78.8941 253.438 79.3711 253.5 79.9364 253.553C80.5018 253.606 81.0318 253.633 81.5264 253.633C82.7278 253.633 83.8319 253.456 84.8389 253.103C85.8459 252.749 86.7116 252.202 87.4359 251.46C88.1603 250.718 88.7256 249.755 89.1319 248.571C89.5383 247.388 89.7414 245.965 89.7414 244.305C89.7414 241.125 88.9994 238.731 87.5154 237.123C86.0314 235.516 84.0528 234.712 81.5794 234.712C81.0848 234.712 80.5813 234.729 80.0689 234.765C79.5566 234.8 79.0354 234.853 78.5054 234.924L78.5054 253.368ZM81.4734 261.106C80.8728 261.106 80.1838 261.088 79.4064 261.053C78.6291 261.017 77.8253 260.947 76.9949 260.841C76.1646 260.735 75.3343 260.602 74.5039 260.443C73.6736 260.284 72.9051 260.063 72.1984 259.781C70.2551 259.039 69.2834 257.749 69.2834 255.912L69.2834 231.161C69.2834 230.419 69.4866 229.845 69.8929 229.438C70.2993 229.032 70.8558 228.705 71.5624 228.458C73.0818 227.963 74.6894 227.636 76.3854 227.477C78.0814 227.318 79.6008 227.239 80.9434 227.239C83.6994 227.239 86.1993 227.574 88.4429 228.246C90.6866 228.917 92.6123 229.951 94.2199 231.346C95.8276 232.742 97.0731 234.5 97.9564 236.62C98.8398 238.74 99.2814 241.248 99.2814 244.146C99.2814 246.972 98.8574 249.437 98.0094 251.539C97.1614 253.642 95.9513 255.408 94.3789 256.839C92.8066 258.27 90.9251 259.339 88.7344 260.046C86.5438 260.752 84.1234 261.106 81.4734 261.106Z"/>
<path d="M126.902 260.205C126.549 260.311 125.993 260.417 125.233 260.523C124.473 260.629 123.687 260.682 122.874 260.682C122.097 260.682 121.399 260.629 120.781 260.523C120.163 260.417 119.641 260.205 119.217 259.887C118.793 259.569 118.467 259.136 118.237 258.588C118.007 258.041 117.892 257.325 117.892 256.442L117.892 240.542C117.892 239.729 118.043 239.031 118.343 238.448C118.643 237.865 119.076 237.344 119.641 236.885C120.207 236.425 120.905 236.01 121.735 235.639C122.565 235.268 123.457 234.941 124.411 234.659C125.365 234.376 126.355 234.155 127.379 233.996C128.404 233.837 129.429 233.758 130.453 233.758C132.149 233.758 133.492 234.085 134.481 234.738C135.471 235.392 135.965 236.461 135.965 237.945C135.965 238.439 135.895 238.925 135.753 239.402C135.612 239.879 135.435 240.312 135.223 240.701C134.481 240.701 133.722 240.736 132.944 240.807C132.167 240.877 131.407 240.983 130.665 241.125C129.923 241.266 129.226 241.416 128.572 241.575C127.918 241.734 127.362 241.92 126.902 242.132L126.902 260.205Z"/>
<path d="M149.435 255.965C149.435 254.481 149.895 253.244 150.813 252.255C151.732 251.265 152.986 250.771 154.576 250.771C156.166 250.771 157.421 251.265 158.339 252.255C159.258 253.244 159.717 254.481 159.717 255.965C159.717 257.449 159.258 258.685 158.339 259.675C157.421 260.664 156.166 261.159 154.576 261.159C152.986 261.159 151.732 260.664 150.813 259.675C149.895 258.685 149.435 257.449 149.435 255.965Z"/>
<path d="M174.194 235.56C173.947 235.171 173.717 234.641 173.505 233.97C173.293 233.298 173.187 232.592 173.187 231.85C173.187 230.472 173.497 229.482 174.115 228.882C174.733 228.281 175.537 227.981 176.526 227.981L199.634 227.981C199.882 228.369 200.111 228.899 200.323 229.571C200.535 230.242 200.641 230.949 200.641 231.691C200.641 233.069 200.332 234.058 199.714 234.659C199.096 235.259 198.292 235.56 197.302 235.56L191.419 235.56L191.419 260.046C191.031 260.152 190.421 260.258 189.591 260.364C188.761 260.47 187.939 260.523 187.126 260.523C186.314 260.523 185.598 260.461 184.98 260.337C184.362 260.214 183.84 259.993 183.416 259.675C182.992 259.357 182.674 258.915 182.462 258.35C182.25 257.784 182.144 257.042 182.144 256.124L182.144 235.56L174.194 235.56Z"/>
<path d="M227.891 254.534C228.492 254.534 229.155 254.472 229.879 254.348C230.603 254.225 231.142 254.057 231.495 253.845L231.495 249.605L227.679 249.923C226.69 249.993 225.877 250.205 225.241 250.559C224.605 250.912 224.287 251.442 224.287 252.149C224.287 252.855 224.561 253.43 225.109 253.871C225.657 254.313 226.584 254.534 227.891 254.534ZM227.467 233.705C229.375 233.705 231.116 233.899 232.688 234.288C234.26 234.676 235.603 235.268 236.716 236.063C237.829 236.858 238.686 237.865 239.286 239.084C239.887 240.303 240.187 241.743 240.187 243.404L240.187 255.276C240.187 256.194 239.931 256.945 239.419 257.528C238.907 258.111 238.297 258.615 237.59 259.039C235.294 260.417 232.061 261.106 227.891 261.106C226.019 261.106 224.332 260.929 222.83 260.576C221.328 260.222 220.039 259.692 218.961 258.986C217.883 258.279 217.053 257.378 216.47 256.283C215.887 255.187 215.595 253.915 215.595 252.467C215.595 250.029 216.32 248.156 217.768 246.849C219.217 245.541 221.461 244.729 224.499 244.411L231.442 243.669L231.442 243.298C231.442 242.273 230.992 241.54 230.091 241.098C229.19 240.657 227.891 240.436 226.195 240.436C224.853 240.436 223.545 240.577 222.273 240.86C221.001 241.142 219.853 241.496 218.828 241.92C218.369 241.602 217.98 241.116 217.662 240.462C217.344 239.809 217.185 239.128 217.185 238.422C217.185 237.503 217.406 236.77 217.848 236.222C218.29 235.675 218.97 235.206 219.888 234.818C220.913 234.429 222.123 234.146 223.519 233.97C224.915 233.793 226.231 233.705 227.467 233.705Z"/>
<path d="M273.32 261.106C271.236 261.106 269.301 260.814 267.517 260.231C265.733 259.648 264.178 258.774 262.853 257.608C261.528 256.442 260.486 254.975 259.726 253.209C258.966 251.442 258.586 249.375 258.586 247.008C258.586 244.676 258.966 242.671 259.726 240.992C260.486 239.314 261.484 237.936 262.72 236.858C263.957 235.781 265.37 234.986 266.96 234.473C268.55 233.961 270.176 233.705 271.836 233.705C273.709 233.705 275.414 233.987 276.951 234.553C278.488 235.118 279.813 235.895 280.926 236.885C282.039 237.874 282.905 239.058 283.523 240.436C284.141 241.814 284.45 243.315 284.45 244.941C284.45 246.142 284.115 247.061 283.443 247.697C282.772 248.333 281.836 248.739 280.634 248.916L267.543 250.877C267.932 252.043 268.727 252.917 269.928 253.5C271.13 254.083 272.508 254.375 274.062 254.375C275.511 254.375 276.88 254.189 278.17 253.818C279.46 253.447 280.511 253.014 281.323 252.52C281.889 252.873 282.366 253.368 282.754 254.004C283.143 254.64 283.337 255.311 283.337 256.018C283.337 257.608 282.595 258.791 281.111 259.569C279.981 260.169 278.709 260.576 277.295 260.788C275.882 261 274.557 261.106 273.32 261.106ZM271.836 240.277C270.988 240.277 270.255 240.418 269.637 240.701C269.019 240.983 268.515 241.346 268.126 241.787C267.738 242.229 267.446 242.724 267.252 243.271C267.058 243.819 266.943 244.375 266.907 244.941L275.97 243.457C275.864 242.75 275.476 242.043 274.804 241.337C274.133 240.63 273.144 240.277 271.836 240.277Z"/>
<path d="M326.601 235.56C326.354 235.171 326.124 234.641 325.912 233.97C325.7 233.298 325.594 232.592 325.594 231.85C325.594 230.472 325.904 229.482 326.522 228.882C327.14 228.281 327.944 227.981 328.933 227.981L352.041 227.981C352.289 228.369 352.518 228.899 352.73 229.571C352.942 230.242 353.048 230.949 353.048 231.691C353.048 233.069 352.739 234.058 352.121 234.659C351.503 235.259 350.699 235.56 349.709 235.56L343.826 235.56L343.826 260.046C343.438 260.152 342.828 260.258 341.998 260.364C341.168 260.47 340.346 260.523 339.533 260.523C338.721 260.523 338.005 260.461 337.387 260.337C336.769 260.214 336.247 259.993 335.823 259.675C335.399 259.357 335.081 258.915 334.869 258.35C334.657 257.784 334.551 257.042 334.551 256.124L334.551 235.56L326.601 235.56Z"/>
<path d="M369.539 234.871C369.893 234.765 370.449 234.659 371.209 234.553C371.969 234.447 372.755 234.394 373.567 234.394C374.345 234.394 375.043 234.447 375.661 234.553C376.279 234.659 376.8 234.871 377.224 235.189C377.648 235.507 377.975 235.94 378.205 236.487C378.435 237.035 378.549 237.75 378.549 238.634L378.549 250.029C378.549 251.477 378.903 252.511 379.609 253.129C380.316 253.748 381.341 254.057 382.683 254.057C383.496 254.057 384.159 253.986 384.671 253.845C385.183 253.703 385.581 253.562 385.863 253.421L385.863 234.871C386.217 234.765 386.773 234.659 387.533 234.553C388.293 234.447 389.079 234.394 389.891 234.394C390.669 234.394 391.367 234.447 391.985 234.553C392.603 234.659 393.124 234.871 393.548 235.189C393.972 235.507 394.299 235.94 394.529 236.487C394.759 237.035 394.873 237.75 394.873 238.634L394.873 254.746C394.873 256.512 394.131 257.837 392.647 258.721C391.411 259.498 389.936 260.09 388.222 260.496C386.508 260.903 384.644 261.106 382.63 261.106C380.722 261.106 378.965 260.894 377.357 260.47C375.749 260.046 374.362 259.392 373.196 258.509C372.03 257.625 371.129 256.486 370.493 255.09C369.857 253.695 369.539 252.007 369.539 250.029L369.539 234.871Z"/>
<path d="M423.395 251.407C423.395 252.325 423.687 252.979 424.27 253.368C424.853 253.756 425.674 253.951 426.734 253.951C427.264 253.951 427.812 253.907 428.377 253.818C428.943 253.73 429.437 253.615 429.861 253.474C430.179 253.862 430.453 254.295 430.683 254.772C430.913 255.249 431.027 255.823 431.027 256.495C431.027 257.837 430.524 258.933 429.517 259.781C428.51 260.629 426.734 261.053 424.19 261.053C421.081 261.053 418.687 260.346 417.009 258.933C415.331 257.519 414.491 255.223 414.491 252.043L414.491 229.359C414.88 229.253 415.437 229.138 416.161 229.014C416.885 228.891 417.654 228.829 418.466 228.829C420.021 228.829 421.231 229.103 422.097 229.65C422.963 230.198 423.395 231.355 423.395 233.122L423.395 236.514L430.338 236.514C430.55 236.902 430.754 237.388 430.948 237.971C431.142 238.554 431.239 239.199 431.239 239.906C431.239 241.142 430.966 242.035 430.418 242.582C429.87 243.13 429.137 243.404 428.218 243.404L423.395 243.404L423.395 251.407Z"/>
<path d="M475.926 247.379C475.926 249.569 475.591 251.522 474.919 253.235C474.248 254.949 473.303 256.389 472.084 257.555C470.865 258.721 469.407 259.604 467.711 260.205C466.015 260.805 464.125 261.106 462.04 261.106C459.956 261.106 458.065 260.788 456.369 260.152C454.673 259.516 453.216 258.606 451.997 257.422C450.778 256.239 449.833 254.799 449.161 253.103C448.49 251.407 448.154 249.499 448.154 247.379C448.154 245.294 448.49 243.404 449.161 241.708C449.833 240.012 450.778 238.572 451.997 237.388C453.216 236.205 454.673 235.295 456.369 234.659C458.065 234.023 459.956 233.705 462.04 233.705C464.125 233.705 466.015 234.032 467.711 234.685C469.407 235.339 470.865 236.258 472.084 237.441C473.303 238.625 474.248 240.065 474.919 241.761C475.591 243.457 475.926 245.329 475.926 247.379ZM457.376 247.379C457.376 249.534 457.792 251.186 458.622 252.334C459.452 253.483 460.609 254.057 462.093 254.057C463.577 254.057 464.717 253.474 465.512 252.308C466.307 251.142 466.704 249.499 466.704 247.379C466.704 245.259 466.298 243.625 465.485 242.476C464.673 241.328 463.524 240.754 462.04 240.754C460.556 240.754 459.408 241.328 458.595 242.476C457.783 243.625 457.376 245.259 457.376 247.379Z"/>
<path d="M503.335 260.205C502.982 260.311 502.426 260.417 501.666 260.523C500.906 260.629 500.12 260.682 499.307 260.682C498.53 260.682 497.832 260.629 497.214 260.523C496.596 260.417 496.074 260.205 495.65 259.887C495.226 259.569 494.9 259.136 494.67 258.588C494.44 258.041 494.325 257.325 494.325 256.442L494.325 240.542C494.325 239.729 494.476 239.031 494.776 238.448C495.076 237.865 495.509 237.344 496.074 236.885C496.64 236.425 497.338 236.01 498.168 235.639C498.998 235.268 499.89 234.941 500.844 234.659C501.798 234.376 502.788 234.155 503.812 233.996C504.837 233.837 505.862 233.758 506.886 233.758C508.582 233.758 509.925 234.085 510.914 234.738C511.904 235.392 512.398 236.461 512.398 237.945C512.398 238.439 512.328 238.925 512.186 239.402C512.045 239.879 511.868 240.312 511.656 240.701C510.914 240.701 510.155 240.736 509.377 240.807C508.6 240.877 507.84 240.983 507.098 241.125C506.356 241.266 505.659 241.416 505.005 241.575C504.351 241.734 503.795 241.92 503.335 242.132L503.335 260.205Z"/>
</g>
</g>
</g>
</svg>
